<svg width="48" height="49" viewBox="0 0 48 49" fill="none" xmlns="http://www.w3.org/2000/svg">
<path fill-rule="evenodd" clip-rule="evenodd" d="M10.5858 11.0858C11.3668 10.3047 12.6332 10.3047 13.4142 11.0858L24 21.6716L34.5858 11.0858C35.3668 10.3047 36.6332 10.3047 37.4142 11.0858C38.1953 11.8668 38.1953 13.1332 37.4142 13.9142L26.8284 24.5L37.4142 35.0858C38.1953 35.8668 38.1953 37.1332 37.4142 37.9142C36.6332 38.6953 35.3668 38.6953 34.5858 37.9142L24 27.3284L13.4142 37.9142C12.6332 38.6953 11.3668 38.6953 10.5858 37.9142C9.80474 37.1332 9.80474 35.8668 10.5858 35.0858L21.1716 24.5L10.5858 13.9142C9.80474 13.1332 9.80474 11.8668 10.5858 11.0858Z" fill="#AAAAAA"/>
</svg>
