<svg width="31" height="30" viewBox="0 0 31 30" fill="none" xmlns="http://www.w3.org/2000/svg">
<path fill-rule="evenodd" clip-rule="evenodd" d="M6.90127 7.16351C7.38943 6.70722 8.18088 6.70722 8.66904 7.16351L15.2852 13.3477L21.9013 7.16351C22.3894 6.70722 23.1809 6.70722 23.669 7.16351C24.1572 7.61979 24.1572 8.35958 23.669 8.81587L17.0529 15.0001L23.669 21.1843C24.1572 21.6406 24.1572 22.3804 23.669 22.8367C23.1809 23.2929 22.3894 23.2929 21.9013 22.8367L15.2852 16.6524L8.66904 22.8367C8.18088 23.2929 7.38943 23.2929 6.90127 22.8367C6.41312 22.3804 6.41312 21.6406 6.90127 21.1843L13.5174 15.0001L6.90127 8.81587C6.41312 8.35958 6.41312 7.61979 6.90127 7.16351Z" fill="#0067F4"/>
</svg>
