<svg width="24" height="25" viewBox="0 0 24 25" fill="none" xmlns="http://www.w3.org/2000/svg">
<path fill-rule="evenodd" clip-rule="evenodd" d="M12 2.99961C6.69807 2.99961 2.4 7.29768 2.4 12.5996C2.4 17.9015 6.69807 22.1996 12 22.1996C17.3019 22.1996 21.6 17.9015 21.6 12.5996C21.6 7.29768 17.3019 2.99961 12 2.99961ZM0 12.5996C0 5.97219 5.37258 0.599609 12 0.599609C18.6274 0.599609 24 5.97219 24 12.5996C24 19.227 18.6274 24.5996 12 24.5996C5.37258 24.5996 0 19.227 0 12.5996ZM17.5972 8.70272C18.0926 9.14302 18.1372 9.90151 17.6969 10.3968L11.2969 17.5968C11.0692 17.853 10.7428 17.9996 10.4 17.9996C10.0572 17.9996 9.73083 17.853 9.50311 17.5968L6.30311 13.9968C5.86281 13.5015 5.90742 12.743 6.40276 12.3027C6.8981 11.8624 7.65659 11.907 8.09689 12.4024L10.4 14.9934L15.9031 8.80237C16.3434 8.30703 17.1019 8.26242 17.5972 8.70272Z" fill="#999999"/>
</svg>
