<svg width="30" height="31" viewBox="0 0 30 31" fill="none" xmlns="http://www.w3.org/2000/svg">
<path d="M12.5 15.5996C12.5 16.9803 13.6193 18.0996 15 18.0996C16.3807 18.0996 17.5 16.9803 17.5 15.5996C17.5 14.2189 16.3807 13.0996 15 13.0996C13.6193 13.0996 12.5 14.2189 12.5 15.5996Z" fill="#AAAAAA"/>
<path d="M12.5 8.09961C12.5 9.48032 13.6193 10.5996 15 10.5996C16.3807 10.5996 17.5 9.48032 17.5 8.09961C17.5 6.7189 16.3807 5.59961 15 5.59961C13.6193 5.59961 12.5 6.7189 12.5 8.09961Z" fill="#AAAAAA"/>
<path d="M12.5 23.0996C12.5 24.4803 13.6193 25.5996 15 25.5996C16.3807 25.5996 17.5 24.4803 17.5 23.0996C17.5 21.7189 16.3807 20.5996 15 20.5996C13.6193 20.5996 12.5 21.7189 12.5 23.0996Z" fill="#AAAAAA"/>
</svg>
