<svg width="31" height="30" viewBox="0 0 31 30" fill="none" xmlns="http://www.w3.org/2000/svg">
<path fill-rule="evenodd" clip-rule="evenodd" d="M15.5 2.5C16.1904 2.5 16.75 3.05964 16.75 3.75V16.9822L19.6161 14.1161C20.1043 13.628 20.8957 13.628 21.3839 14.1161C21.872 14.6043 21.872 15.3957 21.3839 15.8839L16.3839 20.8839C15.8957 21.372 15.1043 21.372 14.6161 20.8839L9.61612 15.8839C9.12796 15.3957 9.12796 14.6043 9.61612 14.1161C10.1043 13.628 10.8957 13.628 11.3839 14.1161L14.25 16.9822V3.75C14.25 3.05964 14.8096 2.5 15.5 2.5ZM6.75 21.25C7.44036 21.25 8 21.8096 8 22.5V25H23V22.5C23 21.8096 23.5596 21.25 24.25 21.25C24.9404 21.25 25.5 21.8096 25.5 22.5V25C25.5 26.3807 24.3807 27.5 23 27.5H8C6.61929 27.5 5.5 26.3807 5.5 25V22.5C5.5 21.8096 6.05964 21.25 6.75 21.25Z" fill="#DDDDDD"/>
</svg>
