<svg width="30" height="30" viewBox="0 0 30 30" fill="none" xmlns="http://www.w3.org/2000/svg">
<path fill-rule="evenodd" clip-rule="evenodd" d="M15 5C10.8579 5 7.5 8.35786 7.5 12.5C7.5 13.7848 7.95493 15.221 8.72688 16.7098C9.49321 18.1877 10.5295 19.6365 11.5899 20.9241C12.6473 22.2081 13.7081 23.3071 14.506 24.086C14.6854 24.2611 14.8511 24.4197 15 24.5601C15.1489 24.4197 15.3146 24.2611 15.494 24.086C16.2919 23.3071 17.3527 22.2081 18.4101 20.9241C19.4705 19.6365 20.5068 18.1877 21.2731 16.7098C22.0451 15.221 22.5 13.7848 22.5 12.5C22.5 8.35786 19.1421 5 15 5ZM15 26.25C14.1865 27.1991 14.1863 27.1989 14.186 27.1987L14.1834 27.1964L14.1771 27.191L14.1552 27.172C14.1365 27.1557 14.1097 27.1324 14.0754 27.1022C14.0069 27.0418 13.9082 26.954 13.7837 26.8409C13.5347 26.6147 13.1818 26.287 12.7596 25.8749C11.9169 25.0522 10.7902 23.8857 9.66009 22.5134C8.533 21.1448 7.38179 19.5467 6.50749 17.8606C5.63882 16.1853 5 14.3402 5 12.5C5 6.97715 9.47715 2.5 15 2.5C20.5228 2.5 25 6.97715 25 12.5C25 14.3402 24.3612 16.1853 23.4925 17.8606C22.6182 19.5467 21.467 21.1448 20.3399 22.5134C19.2098 23.8857 18.0831 25.0522 17.2404 25.8749C16.8182 26.287 16.4653 26.6147 16.2163 26.8409C16.0918 26.954 15.9931 27.0418 15.9246 27.1022C15.8903 27.1324 15.8635 27.1557 15.8448 27.172L15.8229 27.191L15.8166 27.1964L15.8147 27.1981C15.8144 27.1983 15.8135 27.1991 15 26.25ZM15 26.25L14.186 27.1987C14.6541 27.5999 15.3454 27.6003 15.8135 27.1991L15 26.25ZM15 10C13.6193 10 12.5 11.1193 12.5 12.5C12.5 13.8807 13.6193 15 15 15C16.3807 15 17.5 13.8807 17.5 12.5C17.5 11.1193 16.3807 10 15 10ZM10 12.5C10 9.73858 12.2386 7.5 15 7.5C17.7614 7.5 20 9.73858 20 12.5C20 15.2614 17.7614 17.5 15 17.5C12.2386 17.5 10 15.2614 10 12.5Z" fill="#AAAAAA"/>
</svg>
