<svg width="25" height="25" viewBox="0 0 25 25" fill="none" xmlns="http://www.w3.org/2000/svg">
<path fill-rule="evenodd" clip-rule="evenodd" d="M12.2988 4.80078C10.6511 4.80078 9.29883 6.15307 9.29883 7.80078V10.8008H15.2988V7.80078C15.2988 6.15307 13.9465 4.80078 12.2988 4.80078ZM17.2988 10.8008V7.80078C17.2988 5.0485 15.0511 2.80078 12.2988 2.80078C9.54654 2.80078 7.29883 5.0485 7.29883 7.80078V10.8008H6.29883C5.19426 10.8008 4.29883 11.6962 4.29883 12.8008V20.8008C4.29883 21.9054 5.19426 22.8008 6.29883 22.8008H18.2988C19.4034 22.8008 20.2988 21.9053 20.2988 20.8008V12.8008C20.2988 11.6962 19.4034 10.8008 18.2988 10.8008H17.2988ZM6.29883 12.8008V20.8008H18.2988V12.8008H6.29883Z" fill="#999999"/>
</svg>
