<svg width="21" height="22" viewBox="0 0 21 22" fill="none" xmlns="http://www.w3.org/2000/svg">
<path fill-rule="evenodd" clip-rule="evenodd" d="M1.75 5.84961C1.75 4.88311 2.5335 4.09961 3.5 4.09961H17.5C18.4665 4.09961 19.25 4.88311 19.25 5.84961V15.4746C19.25 16.4411 18.4665 17.2246 17.5 17.2246H13.4874L11.1187 19.5933C10.777 19.935 10.223 19.935 9.88128 19.5933L7.51256 17.2246H3.5C2.5335 17.2246 1.75 16.4411 1.75 15.4746V5.84961ZM17.5 5.84961H3.5V15.4746H7.875C8.10706 15.4746 8.32962 15.5668 8.49372 15.7309L10.5 17.7372L12.5063 15.7309C12.6704 15.5668 12.8929 15.4746 13.125 15.4746H17.5V5.84961ZM5.25 8.91211C5.25 8.42886 5.64175 8.03711 6.125 8.03711H14.875C15.3582 8.03711 15.75 8.42886 15.75 8.91211C15.75 9.39536 15.3582 9.78711 14.875 9.78711H6.125C5.64175 9.78711 5.25 9.39536 5.25 8.91211ZM5.25 12.4121C5.25 11.9289 5.64175 11.5371 6.125 11.5371H11.375C11.8582 11.5371 12.25 11.9289 12.25 12.4121C12.25 12.8954 11.8582 13.2871 11.375 13.2871H6.125C5.64175 13.2871 5.25 12.8954 5.25 12.4121Z" fill="#AAAAAA"/>
</svg>
