<svg width="30" height="30" viewBox="0 0 30 30" fill="none" xmlns="http://www.w3.org/2000/svg">
<path fill-rule="evenodd" clip-rule="evenodd" d="M12.5 5.6532C8.35786 5.6532 5 8.79186 5 12.6636C5 16.5353 8.35786 19.674 12.5 19.674C16.6421 19.674 20 16.5353 20 12.6636C20 8.79186 16.6421 5.6532 12.5 5.6532ZM2.5 12.6636C2.5 7.50129 6.97715 3.31641 12.5 3.31641C18.0228 3.31641 22.5 7.50129 22.5 12.6636C22.5 14.8236 21.7161 16.8125 20.3998 18.3953L27.1339 24.6898C27.622 25.1461 27.622 25.8859 27.1339 26.3422C26.6457 26.7985 25.8543 26.7985 25.3661 26.3422L18.6321 20.0477C16.9387 21.2781 14.8109 22.0108 12.5 22.0108C6.97715 22.0108 2.5 17.8259 2.5 12.6636Z" fill="#AAAAAA"/>
</svg>
