<svg width="23" height="24" viewBox="0 0 23 24" fill="none" xmlns="http://www.w3.org/2000/svg">
<path fill-rule="evenodd" clip-rule="evenodd" d="M9.375 4.5C6.2684 4.5 3.75 7.0184 3.75 10.125C3.75 13.2316 6.2684 15.75 9.375 15.75C12.4816 15.75 15 13.2316 15 10.125C15 7.0184 12.4816 4.5 9.375 4.5ZM1.875 10.125C1.875 5.98286 5.23286 2.625 9.375 2.625C13.5171 2.625 16.875 5.98286 16.875 10.125C16.875 11.8582 16.2871 13.454 15.2999 14.724L20.3504 19.7746C20.7165 20.1407 20.7165 20.7343 20.3504 21.1004C19.9843 21.4665 19.3907 21.4665 19.0246 21.1004L13.974 16.0499C12.704 17.0371 11.1082 17.625 9.375 17.625C5.23286 17.625 1.875 14.2671 1.875 10.125Z" fill="#3B3735"/>
</svg>
